<svg width="10" height="10" viewBox="0 0 10 10" fill="none" xmlns="http://www.w3.org/2000/svg">
<path d="M2.20443 9.14031C1.81014 9.14031 1.44658 9.09593 1.11373 9.00717C0.782601 8.91841 0.513769 8.77504 0.307237 8.57704C0.102412 8.38075 0 8.12813 0 7.81919C0 7.6485 0.0307237 7.49574 0.0921712 7.36089C0.155325 7.22605 0.239816 7.10998 0.345642 7.01269C0.451468 6.9154 0.574363 6.83176 0.714327 6.76178C0.770653 6.73276 0.811618 6.69606 0.837221 6.65169C0.862824 6.60731 0.868799 6.55951 0.855144 6.50831C0.843195 6.45881 0.809911 6.41016 0.755291 6.36237C0.634103 6.25142 0.542786 6.12938 0.481338 5.99625C0.419891 5.86311 0.389167 5.71632 0.389167 5.55587C0.389167 5.34422 0.442934 5.15817 0.550467 4.99772C0.658 4.83557 0.810765 4.70329 1.00876 4.60088C1.08216 4.56503 1.13336 4.52321 1.16238 4.47542C1.1914 4.42763 1.19481 4.37557 1.17262 4.31924C1.15214 4.26121 1.10435 4.20147 1.02924 4.14002C0.882454 4.02907 0.757852 3.89935 0.655439 3.75085C0.554734 3.60065 0.477925 3.43764 0.425011 3.26183C0.373805 3.08432 0.348202 2.89742 0.348202 2.70113C0.348202 2.35463 0.429279 2.04227 0.591432 1.76405C0.753585 1.48583 0.999374 1.26565 1.3288 1.10349C1.65993 0.939633 2.06702 0.857703 2.55007 0.857703C2.72929 0.857703 2.89315 0.868798 3.04165 0.890987C3.19185 0.91147 3.32158 0.937073 3.43082 0.967797C3.54176 0.99852 3.67319 1.03863 3.8251 1.08813C3.99579 1.14446 4.13661 1.18628 4.24755 1.21359C4.36021 1.2409 4.48737 1.25626 4.62904 1.25967C4.77242 1.26138 4.93201 1.2426 5.10782 1.20335C5.33825 1.15043 5.49784 1.18542 5.5866 1.30832C5.67535 1.42951 5.67535 1.55923 5.5866 1.69749C5.49955 1.83404 5.35788 1.89292 5.16158 1.87415C5.01138 1.85878 4.89873 1.86476 4.82362 1.89207C4.75023 1.91767 4.70414 1.96888 4.68537 2.04569C4.66659 2.12079 4.67086 2.23088 4.69817 2.37597C4.76303 2.70539 4.7306 3.03055 4.60088 3.35145C4.47115 3.67063 4.26121 3.94202 3.97104 4.16562C3.68087 4.38752 3.3395 4.52321 2.94692 4.57271C2.85645 4.58466 2.75575 4.59064 2.6448 4.59064C2.56799 4.59064 2.48606 4.58722 2.39901 4.58039C2.31196 4.57186 2.2343 4.56418 2.16602 4.55735C2.13359 4.55394 2.10031 4.55052 2.06617 4.54711C2.02521 4.5437 1.98339 4.54028 1.94072 4.53687C1.85708 4.53175 1.7871 4.53175 1.73077 4.53687C1.67615 4.54199 1.62409 4.5565 1.57459 4.58039C1.42097 4.65208 1.31771 4.75876 1.26479 4.90043C1.21359 5.0404 1.21956 5.18036 1.28272 5.32032C1.34587 5.45858 1.45767 5.56185 1.61812 5.63012C1.72906 5.67791 1.85793 5.70181 2.00472 5.70181H3.76622C4.14856 5.70181 4.46262 5.75728 4.70841 5.86823C4.9542 5.97747 5.13257 6.12597 5.24351 6.31372C5.35617 6.50148 5.4125 6.71655 5.4125 6.95892C5.4125 7.3498 5.27424 7.71165 4.99773 8.04449C4.72292 8.37904 4.34058 8.64531 3.85071 8.84331C3.36254 9.04131 2.81378 9.14031 2.20443 9.14031ZM2.69601 8.57448C3.1176 8.57448 3.46239 8.53437 3.73037 8.45414C3.99835 8.37392 4.19549 8.25615 4.3218 8.10082C4.44811 7.9455 4.51127 7.75433 4.51127 7.52731C4.51127 7.33443 4.46603 7.17484 4.37557 7.04853C4.28681 6.92222 4.146 6.82664 3.95312 6.76178C3.76195 6.69862 3.51445 6.66705 3.21063 6.66705H1.93047C1.57544 6.66705 1.30149 6.72764 1.10861 6.84883C0.915738 6.97172 0.819299 7.18338 0.819299 7.48379C0.819299 7.8354 0.967797 8.10509 1.26479 8.29284C1.5635 8.4806 2.04057 8.57448 2.69601 8.57448ZM2.59103 4.27572C2.81463 4.2723 3.00751 4.20232 3.16966 4.06577C3.33352 3.92752 3.45813 3.74232 3.54347 3.51018C3.62881 3.27634 3.67148 3.01775 3.67148 2.73441C3.67148 2.42888 3.62284 2.15578 3.52555 1.91511C3.42996 1.67444 3.29427 1.48754 3.11846 1.3544C2.94436 1.22127 2.7438 1.15641 2.51678 1.15982C2.28806 1.16323 2.09263 1.23407 1.93047 1.37233C1.76832 1.51058 1.64543 1.69578 1.56179 1.92791C1.47986 2.15834 1.43889 2.41267 1.43889 2.69089C1.43889 2.99471 1.48583 3.26781 1.57971 3.51018C1.6753 3.75085 1.81014 3.93946 1.98424 4.07601C2.16005 4.21256 2.36231 4.27913 2.59103 4.27572Z" fill="white"/>
<path d="M5.64292 5.55587C5.38177 5.55587 5.15732 5.51576 4.96956 5.43554C4.78181 5.35702 4.63672 5.23925 4.53431 5.08222C4.4336 4.92348 4.38325 4.72889 4.38325 4.49846C4.38325 4.2834 4.4319 4.09906 4.52919 3.94544C4.62819 3.79182 4.77413 3.65527 4.967 3.53579C5.16159 3.41631 5.42188 3.29341 5.7479 3.1671C5.8486 3.12955 5.94333 3.09371 6.03209 3.05957C6.12256 3.02373 6.20875 2.98959 6.29068 2.95716C6.43406 2.90083 6.57658 2.84536 6.71825 2.79074C6.85992 2.73612 6.99391 2.68662 7.12022 2.64224C7.20727 2.61152 7.27469 2.57311 7.32249 2.52703C7.37199 2.47923 7.40612 2.42291 7.4249 2.35805C7.44538 2.29318 7.45562 2.21296 7.45562 2.11738V1.57203C7.45562 1.36208 7.42149 1.17945 7.35321 1.02412C7.28664 0.867092 7.17314 0.743343 7.01269 0.652879C6.85395 0.562415 6.6423 0.518889 6.37773 0.522303C6.21046 0.525717 6.06025 0.547906 5.92712 0.588871C5.79569 0.628129 5.69072 0.689577 5.6122 0.773214C5.53368 0.85685 5.49443 0.962677 5.49443 1.09069C5.49443 1.15385 5.49869 1.23834 5.50723 1.34416C5.51064 1.38854 5.51405 1.43292 5.51747 1.4773C5.52942 1.75381 5.44919 1.95352 5.2768 2.07641C5.10441 2.1976 4.92604 2.22235 4.74169 2.15066C4.55906 2.07727 4.46774 1.93303 4.46774 1.71797C4.46774 1.48242 4.58978 1.2298 4.83387 0.960116C5.07966 0.688723 5.38775 0.460856 5.75814 0.276513C6.12853 0.0921712 6.48868 0 6.83859 0C7.1151 0 7.37113 0.0580337 7.60668 0.174101C7.84223 0.288462 8.03084 0.46427 8.17251 0.701525C8.31418 0.937074 8.38331 1.22724 8.37989 1.57203C8.37136 2.39986 8.36965 3.17478 8.37477 3.89679C8.37648 4.06919 8.37819 4.24158 8.37989 4.41397C8.37989 4.55735 8.41403 4.66915 8.48231 4.74938C8.55058 4.82789 8.63934 4.86459 8.74858 4.85947C8.85782 4.85435 8.96877 4.804 9.08142 4.70841C9.13092 4.66232 9.18639 4.64099 9.24784 4.6444C9.30929 4.64782 9.35196 4.67683 9.37586 4.73145C9.40146 4.78437 9.39122 4.85691 9.34513 4.94908C9.29393 5.04979 9.22224 5.14622 9.13007 5.23839C9.0396 5.32886 8.92865 5.40396 8.79723 5.4637C8.6658 5.52515 8.51986 5.55587 8.35941 5.55587C8.15971 5.55587 7.98731 5.50808 7.84223 5.4125C7.69885 5.31862 7.57425 5.18463 7.46843 5.01053C7.43599 4.95761 7.401 4.92092 7.36345 4.90043C7.32761 4.87995 7.2875 4.87568 7.24312 4.88763C7.20045 4.89787 7.15265 4.92518 7.09974 4.96956C6.93929 5.10099 6.79336 5.20767 6.66193 5.2896C6.5305 5.36982 6.38115 5.43383 6.21387 5.48162C6.04831 5.53112 5.85799 5.55587 5.64292 5.55587ZM6.19851 4.94908C6.45283 4.94908 6.67558 4.88763 6.86675 4.76474C7.05792 4.64014 7.20386 4.48396 7.30457 4.2962C7.40527 4.10674 7.45562 3.91898 7.45562 3.73293V3.38729C7.45562 3.26269 7.43856 3.16966 7.40442 3.10822C7.37028 3.04506 7.31993 3.00836 7.25336 2.99812C7.18679 2.98618 7.10059 2.99642 6.99477 3.02885C6.56805 3.1654 6.24204 3.30536 6.01673 3.44874C5.79142 3.59211 5.64292 3.72866 5.57124 3.85839C5.49955 3.9864 5.4637 4.11954 5.4637 4.2578C5.4637 4.40629 5.49187 4.5326 5.54819 4.63672C5.60623 4.73913 5.68986 4.8168 5.7991 4.86971C5.90834 4.92262 6.04148 4.94908 6.19851 4.94908Z" fill="white"/>
</svg>
